<svg   id="chart"   width="100%"   height="100%"   viewBox="0 0 1000 500"   xmlns="http://www.w3.org/2000/svg" >      <path d="M 0,11.036409464964962 C 10.6,12.860889524482193 31.799999999999997,13.25116784716689 53,20.158809762551115 C 74.2,27.066451677935348 84.8,41.039054114600276 106,45.574619041886116 C 127.2,50.110183969171956 137.8,36.4938391268396 159,42.83663439898031 C 180.2,49.179429671121014 190.8,66.97563068358072 212,77.28859540258965 C 233.2,87.60156012159858 243.79999999999998,94.10607448523973 265,94.40145799402498 C 286.2,94.69684150281024 296.8,67.45540610332154 318,78.76551294651594 C 339.2,90.07561978971034 349.8,134.35849944726573 371,150.951992209997 C 392.2,167.54548497272827 402.8,152.7079138320519 424,161.73297676017222 C 445.2,170.75803968829254 455.8,191.855769608364 477,196.07730685059857 C 498.2,200.29884409283315 508.8,180.55140277225232 530,182.8406629713451 C 551.2,185.12992317043788 561.8,211.98186548463363 583,207.52360784606248 C 604.2,203.06535020749132 614.8,153.64407739399763 636,160.54937477848932 C 657.2,167.454672162981 667.8,227.9477687519896 689,242.05009476852095 C 710.2,256.1524207850523 720.8,217.87617992137604 742,231.06100486114605 C 763.2,244.24582980091606 773.8,279.96485736106837 795,307.97421946737103 C 816.2,335.98358157367375 826.8,369.1981372215468 848,371.1078153926595 C 869.2,373.01749356377223 879.8,333.1327279269891 901,317.5226103229346 C 922.2,301.9124927188801 932.8,284.14820406751903 954,293.05722737238705 C 975.2,301.96625067725506 996.4,348.26562695229717 1007,362.0677268472747,L 1000 500,L 0 500Z" fill="#8184c21a" />   <path d="M 0,11.036409464964962 C 10.6,12.860889524482193 31.799999999999997,13.25116784716689 53,20.158809762551115 C 74.2,27.066451677935348 84.8,41.039054114600276 106,45.574619041886116 C 127.2,50.110183969171956 137.8,36.4938391268396 159,42.83663439898031 C 180.2,49.179429671121014 190.8,66.97563068358072 212,77.28859540258965 C 233.2,87.60156012159858 243.79999999999998,94.10607448523973 265,94.40145799402498 C 286.2,94.69684150281024 296.8,67.45540610332154 318,78.76551294651594 C 339.2,90.07561978971034 349.8,134.35849944726573 371,150.951992209997 C 392.2,167.54548497272827 402.8,152.7079138320519 424,161.73297676017222 C 445.2,170.75803968829254 455.8,191.855769608364 477,196.07730685059857 C 498.2,200.29884409283315 508.8,180.55140277225232 530,182.8406629713451 C 551.2,185.12992317043788 561.8,211.98186548463363 583,207.52360784606248 C 604.2,203.06535020749132 614.8,153.64407739399763 636,160.54937477848932 C 657.2,167.454672162981 667.8,227.9477687519896 689,242.05009476852095 C 710.2,256.1524207850523 720.8,217.87617992137604 742,231.06100486114605 C 763.2,244.24582980091606 773.8,279.96485736106837 795,307.97421946737103 C 816.2,335.98358157367375 826.8,369.1981372215468 848,371.1078153926595 C 869.2,373.01749356377223 879.8,333.1327279269891 901,317.5226103229346 C 922.2,301.9124927188801 932.8,284.14820406751903 954,293.05722737238705 C 975.2,301.96625067725506 996.4,348.26562695229717 1007,362.0677268472747" class="Line 1" fill="none" stroke="#8184c2" stroke-width="4px" />   <g>      </g> </svg>