<svg   id="Column Chart 3"   width="100%"   height="100%"   viewBox="0 0 1000 500"   xmlns="http://www.w3.org/2000/svg" >     		     <path d="  M0,500  h66.66666666666667  v-95.44121017804082  q0,-20 -20,-20  h-26.66666666666667  q-20,0 -20,20  Z" fill="#8184c2" /> <path d="  M83.33333333333333,500  h66.66666666666667  v-368.67933358608377  q0,-20 -20,-20  h-26.66666666666667  q-20,0 -20,20  Z" fill="#8184c2" /> <path d="  M166.66666666666666,500  h66.66666666666667  v-142.84789869533734  q0,-20 -20,-20  h-26.66666666666667  q-20,0 -20,20  Z" fill="#8184c2" /> <path d="  M250,500  h66.66666666666667  v-217.3013152562354  q0,-20 -20,-20  h-26.66666666666667  q-20,0 -20,20  Z" fill="#8184c2" /> <path d="  M333.3333333333333,500  h66.66666666666667  v-90.87417688762923  q0,-20 -20,-20  h-26.66666666666667  q-20,0 -20,20  Z" fill="#8184c2" /> <path d="  M416.66666666666663,500  h66.66666666666667  v-296.474727765596  q0,-20 -20,-20  h-26.66666666666667  q-20,0 -20,20  Z" fill="#8184c2" /> <path d="  M500,500  h66.66666666666667  v-139.0299956783059  q0,-20 -20,-20  h-26.66666666666667  q-20,0 -20,20  Z" fill="#8184c2" /> <path d="  M583.3333333333333,500  h66.66666666666667  v-244.70194224760297  q0,-20 -20,-20  h-26.66666666666667  q-20,0 -20,20  Z" fill="#8184c2" /> <path d="  M666.6666666666666,500  h66.66666666666667  v-317.3259423207491  q0,-20 -20,-20  h-26.66666666666667  q-20,0 -20,20  Z" fill="#8184c2" /> <path d="  M750,500  h66.66666666666667  v-354.2890346438924  q0,-20 -20,-20  h-26.66666666666667  q-20,0 -20,20  Z" fill="#8184c2" /> <path d="  M833.3333333333333,500  h66.66666666666667  v-390.21731923238644  q0,-20 -20,-20  h-26.66666666666667  q-20,0 -20,20  Z" fill="#8184c2" /> <path d="  M916.6666666666666,500  h66.66666666666667  v-329.6442990881289  q0,-20 -20,-20  h-26.66666666666667  q-20,0 -20,20  Z" fill="#8184c2" /> </svg>