<svg   id="Column Chart 1"   width="100%"   height="100%"   viewBox="0 0 1000 500"   xmlns="http://www.w3.org/2000/svg" >     		     <path d="  M0,500  h66.66666666666667  v-374.2377068057993  q0,-20 -20,-20  h-26.66666666666667  q-20,0 -20,20  Z" fill="#8184c2" /> <path d="  M83.33333333333333,500  h66.66666666666667  v-124.18341929261709  q0,-20 -20,-20  h-26.66666666666667  q-20,0 -20,20  Z" fill="#8184c2" /> <path d="  M166.66666666666666,500  h66.66666666666667  v-241.30390507824495  q0,-20 -20,-20  h-26.66666666666667  q-20,0 -20,20  Z" fill="#8184c2" /> <path d="  M250,500  h66.66666666666667  v-169.6240505642986  q0,-20 -20,-20  h-26.66666666666667  q-20,0 -20,20  Z" fill="#8184c2" /> <path d="  M333.3333333333333,500  h66.66666666666667  v-306.373445924344  q0,-20 -20,-20  h-26.66666666666667  q-20,0 -20,20  Z" fill="#8184c2" /> <path d="  M416.66666666666663,500  h66.66666666666667  v-260.4619243164975  q0,-20 -20,-20  h-26.66666666666667  q-20,0 -20,20  Z" fill="#8184c2" /> <path d="  M500,500  h66.66666666666667  v-242.7504004591985  q0,-20 -20,-20  h-26.66666666666667  q-20,0 -20,20  Z" fill="#8184c2" /> <path d="  M583.3333333333333,500  h66.66666666666667  v-241.83988197433592  q0,-20 -20,-20  h-26.66666666666667  q-20,0 -20,20  Z" fill="#8184c2" /> <path d="  M666.6666666666666,500  h66.66666666666667  v-95.16828108868503  q0,-20 -20,-20  h-26.66666666666667  q-20,0 -20,20  Z" fill="#8184c2" /> <path d="  M750,500  h66.66666666666667  v-294.9556406646727  q0,-20 -20,-20  h-26.66666666666667  q-20,0 -20,20  Z" fill="#8184c2" /> <path d="  M833.3333333333333,500  h66.66666666666667  v-248.3089225695051  q0,-20 -20,-20  h-26.66666666666667  q-20,0 -20,20  Z" fill="#8184c2" /> <path d="  M916.6666666666666,500  h66.66666666666667  v-280.4783641432936  q0,-20 -20,-20  h-26.66666666666667  q-20,0 -20,20  Z" fill="#8184c2" /> </svg>