<svg   id="Column Chart 2"   width="100%"   height="100%"   viewBox="0 0 1000 500"   xmlns="http://www.w3.org/2000/svg" >     		     <path d="  M0,500  h66.66666666666667  v-301.37636488914677  q0,-20 -20,-20  h-26.66666666666667  q-20,0 -20,20  Z" fill="#8184c2" /> <path d="  M83.33333333333333,500  h66.66666666666667  v-192.59522890073538  q0,-20 -20,-20  h-26.66666666666667  q-20,0 -20,20  Z" fill="#8184c2" /> <path d="  M166.66666666666666,500  h66.66666666666667  v-189.22453492549585  q0,-20 -20,-20  h-26.66666666666667  q-20,0 -20,20  Z" fill="#8184c2" /> <path d="  M250,500  h66.66666666666667  v-290.08247501316043  q0,-20 -20,-20  h-26.66666666666667  q-20,0 -20,20  Z" fill="#8184c2" /> <path d="  M333.3333333333333,500  h66.66666666666667  v-399.41027490917736  q0,-20 -20,-20  h-26.66666666666667  q-20,0 -20,20  Z" fill="#8184c2" /> <path d="  M416.66666666666663,500  h66.66666666666667  v-352.6216317157781  q0,-20 -20,-20  h-26.66666666666667  q-20,0 -20,20  Z" fill="#8184c2" /> <path d="  M500,500  h66.66666666666667  v-178.13352150380013  q0,-20 -20,-20  h-26.66666666666667  q-20,0 -20,20  Z" fill="#8184c2" /> <path d="  M583.3333333333333,500  h66.66666666666667  v-357.5871817402723  q0,-20 -20,-20  h-26.66666666666667  q-20,0 -20,20  Z" fill="#8184c2" /> <path d="  M666.6666666666666,500  h66.66666666666667  v-177.73432952044004  q0,-20 -20,-20  h-26.66666666666667  q-20,0 -20,20  Z" fill="#8184c2" /> <path d="  M750,500  h66.66666666666667  v-203.49535140823332  q0,-20 -20,-20  h-26.66666666666667  q-20,0 -20,20  Z" fill="#8184c2" /> <path d="  M833.3333333333333,500  h66.66666666666667  v-111.67157932565794  q0,-20 -20,-20  h-26.66666666666667  q-20,0 -20,20  Z" fill="#8184c2" /> <path d="  M916.6666666666666,500  h66.66666666666667  v-104.25353250893  q0,-20 -20,-20  h-26.66666666666667  q-20,0 -20,20  Z" fill="#8184c2" /> </svg>