<svg   id="Column Chart 4"   width="100%"   height="100%"   viewBox="0 0 1000 500"   xmlns="http://www.w3.org/2000/svg" >     		     <path d="  M0,500  h66.66666666666667  v-143.24840866021646  q0,-20 -20,-20  h-26.66666666666667  q-20,0 -20,20  Z" fill="#8184c2" /> <path d="  M83.33333333333333,500  h66.66666666666667  v-422.56418706598765  q0,-20 -20,-20  h-26.66666666666667  q-20,0 -20,20  Z" fill="#8184c2" /> <path d="  M166.66666666666666,500  h66.66666666666667  v-361.75261458275446  q0,-20 -20,-20  h-26.66666666666667  q-20,0 -20,20  Z" fill="#8184c2" /> <path d="  M250,500  h66.66666666666667  v-316.61320923861354  q0,-20 -20,-20  h-26.66666666666667  q-20,0 -20,20  Z" fill="#8184c2" /> <path d="  M333.3333333333333,500  h66.66666666666667  v-288.69081545125977  q0,-20 -20,-20  h-26.66666666666667  q-20,0 -20,20  Z" fill="#8184c2" /> <path d="  M416.66666666666663,500  h66.66666666666667  v-387.40397474664036  q0,-20 -20,-20  h-26.66666666666667  q-20,0 -20,20  Z" fill="#8184c2" /> <path d="  M500,500  h66.66666666666667  v-247.39397678839447  q0,-20 -20,-20  h-26.66666666666667  q-20,0 -20,20  Z" fill="#8184c2" /> <path d="  M583.3333333333333,500  h66.66666666666667  v-293.5547052516365  q0,-20 -20,-20  h-26.66666666666667  q-20,0 -20,20  Z" fill="#8184c2" /> <path d="  M666.6666666666666,500  h66.66666666666667  v-242.6639184671244  q0,-20 -20,-20  h-26.66666666666667  q-20,0 -20,20  Z" fill="#8184c2" /> <path d="  M750,500  h66.66666666666667  v-423.2160108414106  q0,-20 -20,-20  h-26.66666666666667  q-20,0 -20,20  Z" fill="#8184c2" /> <path d="  M833.3333333333333,500  h66.66666666666667  v-201.8871284702284  q0,-20 -20,-20  h-26.66666666666667  q-20,0 -20,20  Z" fill="#8184c2" /> <path d="  M916.6666666666666,500  h66.66666666666667  v-407.44717671913304  q0,-20 -20,-20  h-26.66666666666667  q-20,0 -20,20  Z" fill="#8184c2" /> </svg>